<!--
    
Source text for rendering at https://sequencediagram.org/
# add viewbox attribute to svg file for img sizing  e.g.,  viewBox="0.0 0.0 829.0 740.0">


~~~sequence
title IPA Sequence Diagram

actor Patient
participant Patient App
database SMART on FHIR\n(OAuth 2.0) Server
database IPA FHIR Server

Patient->Patient App: Patient opens App
Patient App->SMART on FHIR\n(OAuth 2.0) Server: SMART on FHIR\nauthentication and authorization
entryspacing 0.1
SMART on FHIR\n(OAuth 2.0) Server- ->Patient App: # REMOVE SPACE BETWEEN '-' AND '>' TO FIX RENDERING
entryspacing 1
Patient App->IPA FHIR Server: App accesses Patient resource
entryspacing 0.1
IPA FHIR Server- ->Patient App: # REMOVE SPACE BETWEEN '-' AND '>' TO FIX RENDERING
entryspacing 1
Patient App-> IPA FHIR Server: App queries for\nadditional clincal data
entryspacing 0.1
IPA FHIR Server- ->Patient App: # REMOVE SPACE BETWEEN '-' AND '>' TO FIX RENDERING
entryspacing 1
Patient->Patient App: Patient views data 
~~~
-->

<svg version="1.1" xmlns="http://www.w3.org/2000/svg" xmlns:xlink="http://www.w3.org/1999/xlink" width="764" height="810"><desc>title%20IPA%20Sequence%20Diagram%0A%0Aactor%20Patient%0Aparticipant%20Patient%20App%0Adatabase%20SMART%20on%20FHIR%20(OAuth%202.0)%20Server%0Adatabase%20IPA%20FHIR%20Server%0A%0APatient-%3EPatient%20App%3A%20Patient%20opens%20App%0APatient%20App-%3ESMART%20on%20FHIR%20(OAuth%202.0)%20Server%3A%20SMART%20on%20FHIR%5Cnauthentication%20and%20authorization%0Aentryspacing%200.1%0ASMART%20on%20FHIR%20(OAuth%202.0)%20Server--%3EPatient%20App%3A%0Aentryspacing%201%0APatient%20App-%3EIPA%20FHIR%20Server%3A%20App%20accesses%20Patient%20resource%0Aentryspacing%200.1%0AIPA%20FHIR%20Server--%3EPatient%20App%3A%0Aentryspacing%201%0APatient%20App-%3E%20IPA%20FHIR%20Server%3A%20App%20queries%20for%5Cnadditional%20clincal%20data%0Aentryspacing%200.1%0AIPA%20FHIR%20Server--%3E%20Patient%20App%3A%0Aentryspacing%201%0APatient-%3EPatient%20App%3A%20Patient%20views%20data%20%0A</desc><defs/><g><g/><g/><g/><g/><g/><g/><g/><g/><g/><g/><g><rect fill="white" stroke="none" x="0" y="0" width="764" height="810"/></g><g><text fill="black" stroke="none" font-family="sans-serif" font-size="16.5pt" font-style="normal" font-weight="normal" text-decoration="normal" x="268.09914774308265" y="37.696623" text-anchor="start" dominant-baseline="alphabetic" xml:space="preserve">IPA Sequence Diagram</text></g><g/><g><path fill="none" stroke="black" paint-order="fill stroke markers" d=" M 35.38586112939453 198.28423698 L 35.38586112939453 810.2260836800002" stroke-miterlimit="10" stroke-width="2.094256833333333" stroke-dasharray="19.331601538461538,8.377027333333332"/><path fill="none" stroke="black" paint-order="fill stroke markers" d=" M 225.4514267198893 198.28423698 L 225.4514267198893 810.2260836800002" stroke-miterlimit="10" stroke-width="2.094256833333333" stroke-dasharray="19.331601538461538,8.377027333333332"/><path fill="none" stroke="black" paint-order="fill stroke markers" d=" M 500.30578015218094 198.28423698 L 500.30578015218094 810.2260836800002" stroke-miterlimit="10" stroke-width="2.094256833333333" stroke-dasharray="19.331601538461538,8.377027333333332"/><path fill="none" stroke="black" paint-order="fill stroke markers" d=" M 697.8777724915365 198.28423698 L 697.8777724915365 810.2260836800002" stroke-miterlimit="10" stroke-width="2.094256833333333" stroke-dasharray="19.331601538461538,8.377027333333332"/></g><g><g><path fill="white" stroke="black" paint-order="fill stroke markers" d=" M 49.71057786939453 91.97976012 A 14.324716739999998 14.324716739999998 0 1 1 49.71057070703675 91.96543540564744 M 35.38586112939453 106.30447686 L 35.38586112939453 136.9643969 M 17.291482089394528 117.36215293999999 L 53.48024016939453 117.36215293999999 M 35.38586112939453 136.9643969 L 17.291482089394528 165.61383038 M 35.38586112939453 136.9643969 L 53.48024016939453 165.61383038" stroke-miterlimit="10" stroke-width="4.27228394" stroke-dasharray=""/></g><g><g/><text fill="black" stroke="none" font-family="sans-serif" font-size="11pt" font-style="normal" font-weight="normal" text-decoration="normal" x="12.565540999999996" y="190.74491238000002" text-anchor="start" dominant-baseline="alphabetic" xml:space="preserve">Patient</text></g><path fill="none" stroke="none"/><g><path fill="white" stroke="black" paint-order="fill stroke markers" d=" M 160.28514726893226 130.43031558 L 290.6177061708463 130.43031558 L 290.6177061708463 198.28423698 L 160.28514726893226 198.28423698 L 160.28514726893226 130.43031558 Z" stroke-miterlimit="10" stroke-width="4.02097312" stroke-dasharray=""/></g><g><g/><text fill="black" stroke="none" font-family="sans-serif" font-size="11pt" font-style="normal" font-weight="normal" text-decoration="normal" x="187.55237123893227" y="173.15315498" text-anchor="start" dominant-baseline="alphabetic" xml:space="preserve">Patient App</text></g><g><path fill="white" stroke="black" paint-order="fill stroke markers" d=" M 463.61440043218096 149.02731626 L 463.61440043218096 96.25204406 L 536.997159872181 96.25204406 L 536.997159872181 149.02731626" stroke-miterlimit="10" stroke-width="4.27228394" stroke-dasharray=""/><path fill="white" stroke="black" paint-order="fill stroke markers" d=" M 536.997159872181 94.41747507400001 L 536.995325318483 94.58333745079482 L 536.9898218408429 94.74918324149016 L 536.9806499896039 94.91499586164517 L 536.9678106819434 95.08075873013601 L 536.9513052017816 95.24645527081398 L 536.9311351996525 95.41206891416309 L 536.9073026925398 95.577583098957 L 536.8798100636743 95.74298127391518 L 536.8486600622958 95.90824689935793 L 536.8138558033786 96.07336344886046 L 536.7754007673196 96.23831441090542 L 536.7332987995903 96.40308329053404 L 536.6875541103525 96.56765361099568 L 536.638171274037 96.73200891539541 L 536.5851552288859 96.8961327683398 L 536.5285112764601 97.06000875758028 L 536.4682450811073 97.2236204956545 L 536.404362669397 97.38695162152501 L 536.3368704295169 97.54998580221533 L 536.2657751106349 97.71270673444324 L 536.1910838222236 97.87509814625113 L 536.1128040333497 98.03714379863312 L 536.0309435719266 98.19882748715905 L 535.9455106239326 98.36013304359476 L 535.856513732591 98.52104433751906 L 535.7639617975169 98.68154527793664 L 535.6678640738266 98.8416198148872 L 535.5682301712125 99.00125194105044 L 535.4650700529817 99.16042569334678 L 535.3583940350602 99.31912515453364 L 535.2482127849609 99.47733445479713 L 535.1345373207167 99.63503777333908 L 535.0173790097797 99.79221933995906 L 534.896749567883 99.94886343663137 L 534.7726610578707 100.1049543990769 L 534.6451258884899 100.26047661832946 L 534.5141568131517 100.41541454229676 L 534.3797669286541 100.56975267731548 L 534.2419696738739 100.72347558970075 L 534.1007788284214 100.87656790728944 L 533.9562085112639 101.02901432097735 L 533.8082731793122 101.18079958625017 L 533.6569876259766 101.33190852470784 L 533.5023669796861 101.48232602558247 L 533.3444267023767 101.63203704724927 L 533.1831825879443 101.78102661873088 L 533.0186507606661 101.92927984119427 L 532.8508476735877 102.07678188944078 L 532.6797901068779 102.22351801338847 L 532.505495166151 102.36947353954723 L 532.3279802807557 102.51463387248609 L 532.1472632020325 102.6589844962927 L 531.9633620015388 102.80251097602499 L 531.7762950692415 102.94519895915458 L 531.5860811116778 103.08703417700207 L 531.3927391500849 103.22800244616386 L 531.196288518498 103.36808966993053 L 530.9967488618165 103.50728183969642 L 530.7941401338397 103.64556503636055 L 530.5884825952717 103.7829254317185 L 530.3797968116947 103.91934928984519 L 530.1681036515135 104.05482296846849 L 529.9534242838675 104.18933292033344 L 529.7357801765147 104.32286569455697 L 529.5151930936843 104.45540793797288 L 529.2916850939009 104.58694639646733 L 529.0652785277781 104.71746791630405 L 528.835996035784 104.84695944543984 L 528.6038605459765 104.9754080348297 L 528.3688952717115 105.10280083972172 L 528.1311237093203 105.22912512094157 L 527.890569635761 105.35436824616642 L 527.6472571062407 105.4785176911881 L 527.4012104518093 105.60156104116555 L 527.1524542769275 105.72348599186634 L 526.9010134570054 105.84428035089698 L 526.6469131359155 105.96393203892224 L 526.390178723478 106.08242909087302 L 526.1308358929203 106.19975965714288 L 525.8689105783094 106.31591200477295 L 525.6044289719584 106.43087451862529 L 525.3374175218075 106.54463570254428 L 525.0679029287794 106.65718418050638 L 524.7959121441086 106.76850869775753 L 524.521472366647 106.87859812193881 L 524.2446110401436 106.98744144419952 L 523.9653558505004 107.09502778029815 L 523.6837347230035 107.20134637169073 L 523.3997758195312 107.30638658660675 L 523.113507535737 107.41013792111224 L 522.8249584982109 107.51259000016019 L 522.5341575616161 107.61373257862807 L 522.2411338058039 107.71355554234235 L 521.9459165329058 107.81204890908982 L 521.648535264403 107.9092028296159 L 521.3490197381745 108.00500758860947 L 521.0473999055234 108.09945360567448 L 520.7437059281816 108.19253143628795 L 520.4379681752938 108.28423177274436 L 520.1302172203805 108.3745454450865 L 519.8204838382806 108.46346342202237 L 519.5087990020742 108.55097681182839 L 519.1951938799854 108.63707686323852 L 518.8796998322649 108.72175496631934 L 518.5623484080546 108.80500265333112 L 518.2431713422325 108.88681159957454 L 517.9222005522391 108.96717362422314 L 517.599468134886 109.04608069114143 L 517.2750063631461 109.12352490968847 L 516.948847682926 109.19949853550693 L 516.621024709822 109.27399397129757 L 516.2915702258583 109.34700376757885 L 515.9605171762086 109.41852062343203 L 515.6278986659021 109.48853738723108 L 515.2937479565126 109.55704705735798 L 514.9580984628326 109.62404278290282 L 514.6209837495318 109.68951786434887 L 514.2824375278005 109.75346575424254 L 513.9424936519788 109.81588005784813 L 513.6011861161711 109.8767545337873 L 513.2585490508463 109.93608309466319 L 512.9146167194258 109.99385980766914 L 512.5694235148558 110.050078895182 L 512.2230039561691 110.10473473533986 L 511.87539268503315 110.15782186260427 L 511.52662446228516 110.20933496830673 L 511.17673416445683 110.2592689011796 L 510.8257567802864 110.3076186678712 L 510.47372740721977 110.35437943344515 L 510.12068124790085 110.39954652186387 L 509.76665360665146 110.44311541645615 L 509.4116798859406 110.48508176036883 L 509.05579558284467 110.52544135700252 L 508.6990362854973 110.56419017043116 L 508.34143766953093 110.6013243258057 L 507.9830354945092 110.63684010974157 L 507.62386560035094 110.67073397068995 L 507.26396390374623 110.70300251929301 L 506.90336639456484 110.73364252872275 L 506.54210913225717 110.76265093500379 L 506.1802282422484 110.79002483731966 L 505.817759912326 110.81576149830295 L 505.4547403890209 110.83985834430901 L 505.0912059739829 110.8623129656733 L 504.7271930203505 110.8831231169524 L 504.3627379291159 110.90228671714854 L 503.9978771454843 110.91980184991768 L 503.63264715523013 110.9356667637611 L 503.267084481048 110.94987987220067 L 502.9012256789008 110.96243975393737 L 502.5351073343638 110.9733451529935 L 502.1687660589663 110.98259497883825 L 501.8022384865306 110.99018830649673 L 501.4355612695085 110.99612437664251 L 501.0687710753162 111.00040259567353 L 500.70190458266734 111.00302253577144 L 500.3349984779056 111.00398393494442 L 499.96808945133563 111.00328669705333 L 499.6012141935543 111.00093089182141 L 499.2344093917817 110.99691675482721 L 498.86771172619234 110.99124468748109 L 498.50115786624724 110.98391525698503 L 498.1347844670268 110.97492919627601 L 497.76862816556576 110.96428740395258 L 497.40272557718913 110.95199094418513 L 497.03711329185074 110.93804104660938 L 496.67182787047454 110.92243910620346 L 496.3069058412982 110.90518668314841 L 495.9423836962206 110.88628550267217 L 495.5782978871524 110.865737454877 L 495.2146848223712 110.8435445945506 L 494.8515808628804 110.81970914096048 L 494.4890223187733 110.79423347763216 L 494.1270454456024 110.76712015211072 L 493.76568644075314 110.73837187570612 L 493.40498143982495 110.70799152322208 L 493.0449665130174 110.67598213266848 L 492.6856776615231 110.64234690495772 L 492.32715081392774 110.60708920358456 L 491.96942182261745 110.57021255428974 L 491.6125264601931 110.53172064470745 L 491.25650041589364 110.49161732399659 L 490.9013792920268 110.4499066024558 L 490.54719860040893 110.4065926511225 L 490.19399375881414 110.36167980135568 L 489.84180008743226 110.31517254440293 L 489.4906528053369 110.26707553095117 L 489.1405870269636 110.21739357066168 L 488.79163775859854 110.16613163168908 L 488.4438398948778 110.11329484018454 L 488.0972282152978 110.05888847978319 L 487.75183738073775 110.00291799107573 L 487.40770192999327 109.94538897106439 L 487.06485627632264 109.88630717260322 L 486.72333470400554 109.82567850382286 L 486.3831713649146 109.76350902753963 L 486.0444002751002 109.69980496064936 L 485.7070553113891 109.63457267350567 L 485.37117020799656 109.56781868928289 L 485.03677855315294 109.49954968332383 L 484.7039137857451 109.4297724824722 L 484.37260919197234 109.35849406438993 L 484.04289790201807 109.28572155685941 L 483.71481288673647 109.21146223707079 L 483.3883869543556 109.13572353089413 L 483.0636527471967 109.05851301213696 L 482.74064273841003 108.9798384017868 L 482.4193892287271 108.8997075672391 L 482.09992434323124 108.81812852151059 L 481.7822800281448 108.73510942243782 L 481.4664880476345 108.65065857186153 L 481.1525799806353 108.5647844147964 L 480.8405872176924 108.47749553858658 L 480.5305409578219 108.38880067204694 L 480.2224722053916 108.29870868459024 L 479.91641176701995 108.20722858534012 L 479.61239024849573 108.1143695222303 L 479.3104380517174 108.0201407810897 L 479.0105853716531 107.9245517847139 L 478.7128621933209 107.82761209192289 L 478.41729828879056 107.72933139660518 L 478.1239232142062 107.62971952674836 L 477.8327663068308 107.52878644345645 L 477.5438566821125 107.42654223995365 L 477.25722323077304 107.3229971405751 L 476.9728946159186 107.21816149974445 L 476.6908992701738 107.11204580093845 L 476.4112653928382 107.00466065563852 L 476.1340209470665 106.89601680226971 L 475.85919365707224 106.78612510512683 L 475.5868110053554 106.67499655328801 L 475.31690022995423 106.56264225951583 L 475.04948832172124 106.44907345914604 L 474.78460202162444 106.33430150896402 L 474.52226781807315 106.21833788606916 L 474.262511944269 106.10119418672713 L 474.0053603755831 105.98288212521021 L 473.7508388269579 105.86341353262598 L 473.4989727503361 105.74280035573415 L 473.2497873321156 105.62105465575188 L 473.00330749063056 105.49818860714771 L 472.7595578736596 105.37421449642413 L 472.5185628559615 105.24914472088889 L 472.280346536837 105.12299178741533 L 472.0449327377196 104.99576831119165 L 471.812344999793 104.86748701445948 L 471.5826065816372 104.73816072524157 L 471.3557404569026 104.60780237605908 L 471.1317693120125 104.4764250026383 L 470.9107155438949 104.34404174260709 L 470.6926012577423 104.21066583418111 L 470.4774482648016 104.0763106148401 L 470.26527808019273 103.94098951999399 L 470.05611192075736 103.80471608163953 L 469.84997070293724 103.66750392700698 L 469.64687504068223 103.52936677719745 L 469.44684524338936 103.39031844581083 L 469.2499013138717 103.25037283756437 L 469.0560629463581 103.10954394690228 L 468.8653495245237 102.96784585659626 L 468.67778011955176 102.82529273633727 L 468.49337348822655 102.68189884131853 L 468.3121480710575 102.53767851081007 L 468.13412199043523 102.39264616672473 L 467.9593130488196 102.24681631217608 L 467.7877387269589 102.10020353002803 L 467.6194161821425 101.95282248143664 L 467.45436224648455 101.80468790438394 L 467.2925934252411 101.65581461220418 L 467.1341258951594 101.50621749210254 L 466.97897550286046 101.35591150366636 L 466.82715776325426 101.20491167736921 L 466.6786878579881 101.05323311306792 L 466.533580633929 100.90089097849248 L 466.39185060167824 100.74790050772944 L 466.253511934121 100.59427699969835 L 466.1185784650088 100.44003581662203 L 465.9870636875761 100.28519238249021 L 465.85898075319096 100.1297621815173 L 465.7343424700402 99.97376075659385 L 465.6131613018482 99.81720370773238 L 465.49544936663085 99.66010669050728 L 465.3812184354835 99.50248541448939 L 465.2704799314041 99.34435564167492 L 465.16324492815085 99.18573318490942 L 465.05952414913463 99.02663390630637 L 464.9593279663469 98.86707371566104 L 464.8626663993225 98.70706856885951 L 464.7695491141376 98.54663446628317 L 464.679985422443 98.38578745120854 L 464.59398428053333 98.22454360820312 L 464.5115542884511 98.06291906151681 L 464.43270368912687 97.90092997346962 L 464.3574403675548 97.73859254283535 L 464.28577185000427 97.57592300322177 L 464.21770530326745 97.41293762144731 L 464.1532475339422 97.24965269591432 L 464.09240498775176 97.08608455497928 L 464.03518374890007 96.92224955531998 L 463.9815895394633 96.75816408029984 L 463.9316277188177 96.59384453832965 L 463.88530328310384 96.42930736122665 L 463.84262086472654 96.26456900257145 L 463.8035847318921 96.09964593606264 L 463.76819878818134 95.93455465386943 L 463.7364665721591 95.76931166498245 L 463.7083912570205 95.6039334935629 L 463.6839756502737 95.43843667729011 L 463.663222193459 95.27283776570779 L 463.6461329619048 95.1071533185691 L 463.63270966452006 94.94139990418068 L 463.6229536436233 94.77559409774585 L 463.61686587480847 94.60975247970708 L 463.61444696684737 94.44389163408796 L 463.6156971616288 94.27802814683484 L 463.62061633413435 94.11217860415825 L 463.6292039924508 93.94635959087422 L 463.64145927781954 93.78058768874591 L 463.65738096472217 93.61487947482539 L 463.67696746100336 93.44925151979595 L 463.7002168080297 93.28372038631508 L 463.727126680886 93.1183026273582 L 463.75769438860726 92.95301478456334 L 463.79191687444825 92.78787338657703 L 463.82979071618894 92.62289494740149 L 463.8713121264766 92.45809596474311 L 463.91647695320495 92.29349291836286 L 463.9652806799288 92.12910226842818 L 464.01771842631626 91.9649404538671 L 464.0737849486364 91.80102389072425 L 464.1334746402836 91.63736897051936 L 464.19678153233855 91.47399205860808 L 464.2636992941647 91.31090949254543 L 464.33422123404176 91.14813758045214 L 464.4083402998344 90.98569259938377 L 464.48604907969786 90.82359079370305 L 464.5673398028188 90.66184837345546 L 464.65220434019284 90.50048151274825 L 464.74063420543683 90.33950634813301 L 464.83262055563796 90.17893897699207 L 464.9281541922379 90.01879545592872 L 465.0272255619526 89.85909179916163 L 465.1298247577276 89.69984397692338 L 465.23594151972884 89.54106791386349 L 465.34556523636854 89.38277948745596 L 465.45868494536643 89.2249945264115 L 465.5752893348458 89.06772880909477 L 465.695366744465 88.91099806194642 L 465.818905166583 88.75481795791055 L 465.9458922474606 88.59920411486743 L 466.0763152884956 88.44417209407167 L 466.21016124749247 88.28973739859619 L 466.34741673996683 88.1359154717818 L 466.48806804048394 87.98272169569302 L 466.63210108403086 87.83017138957979 L 466.7795014674233 87.67827980834561 L 466.9302544507457 87.52706214102201 L 467.08434495882545 87.37653350924973 L 467.2417575827401 87.22670896576648 L 467.40247658135837 87.07760349290177 L 467.56648588291444 86.92923200107863 L 467.73376908661476 86.7816093273226 L 467.9043094642784 86.63475023377804 L 468.0780899620097 86.48866940623192 L 468.2550932019037 86.34338145264526 L 468.4353014837839 86.19890090169235 L 468.6186967869723 86.05524220130788 L 468.8052607720914 85.91241971724217 L 468.99497478289817 85.77044773162461 L 469.1878198481496 85.62934044153546 L 469.38377668349995 85.48911195758615 L 469.58282569342884 85.34977630250819 L 469.7849469732013 85.21134740975099 L 469.99012031085766 85.07383912208846 L 470.1983251892352 84.9372651902348 L 470.40954078801957 84.80163927146936 L 470.62374598582693 84.66697492827099 L 470.84091936231596 84.53328562696181 L 471.06103920033 84.40058473636054 L 471.2840834880687 84.26888552644567 L 471.5100299212891 84.1382011670284 L 471.7388559055363 84.00854472643582 L 471.9705385584024 83.8799291702039 L 472.20505471181525 83.75236735978109 L 472.442380914355 83.62587205124215 L 472.68249343359906 83.50045589401252 L 472.92536825849567 83.3761314296034 L 473.1709811017647 83.25291109035763 L 473.4193074023266 83.13080719820645 L 473.6703223277581 83.00983196343734 L 473.92400077677587 82.88999748347292 L 474.1803173817465 82.77131574166137 L 474.43924651122296 82.65379860607796 L 474.70076227250814 82.53745782833829 L 474.9648385142439 82.42230504242323 L 475.2314488290261 82.30835176351538 L 475.5005665560453 82.19560938684766 L 475.7721647837532 82.08408918656382 L 476.0462163525534 81.97380231459091 L 476.3226938575173 81.86475979952428 L 476.6015696511248 81.7569725455245 L 476.882815846029 81.65045133122722 L 477.16640431784475 81.54520680866504 L 477.45230670796116 81.44124950220255 L 477.7404944263775 81.33858980748376 L 478.030938654562 81.23723799039259 L 478.32361034833406 81.13720418602627 L 478.61848024076806 81.0384983976819 L 478.9155188451205 80.94113049585604 L 479.21469645777853 80.84511021725777 L 479.5159831612301 80.75044716383489 L 479.819348827056 80.65715080181388 L 480.12476311894244 80.56523046075318 L 480.4321954957148 80.47469533261032 L 480.7416152143915 80.38555447082265 L 481.05299133325855 80.29781678940206 L 481.3662927149636 80.2114910620436 L 481.68148802962946 80.12658592124805 L 481.9985457579874 80.04310985745875 L 482.3174341945288 79.9610712182125 L 482.6381214506757 79.88047820730485 L 482.9605754579698 79.80133888396976 L 483.284763971279 79.7236611620736 L 483.61065457202216 79.64745280932382 L 483.9382146714108 79.57272144649221 L 484.2674115137079 79.49947454665276 L 484.59821217950355 79.42771943443441 L 484.9305835890069 79.3574632852886 L 485.264492505354 79.2887131247717 L 485.59990553793136 79.22147582784245 L 485.9367891457153 79.15575811817455 L 486.2751096406258 79.09156656748415 L 486.6148331908952 79.02890759487286 L 486.9559258244517 78.96778746618574 L 487.2983534323161 78.90821229338468 L 487.642081772013 78.85018803393734 L 487.9870764709949 78.79372049022132 L 488.3333030300794 78.73881530894393 L 488.680726826899 78.68547798057753 L 489.0293131193636 78.63371383881052 L 489.37902704913455 78.58352806001395 L 489.72983364511015 78.53492566272385 L 490.08169782692323 78.48791150713947 L 490.43458440844876 78.44249029463718 L 490.7884581013227 78.39866656730038 L 491.14328351847064 78.3564447074653 L 491.4990251776466 78.31582893728272 L 491.85564750498105 78.27682331829581 L 492.2131148385385 78.23943175103399 L 492.5713914318834 78.20365797462279 L 492.93044145765504 78.16950556641007 L 493.2902290111501 78.13697794160818 L 493.6507181139129 78.1060783529525 L 494.0118727173337 78.07680989037613 L 494.3736567062531 78.04917548070094 L 494.73603390257364 78.02317788734487 L 495.0989680688777 77.99881971004561 L 495.46242291205107 77.97610338460058 L 495.8263620869124 77.95503118262339 L 496.19074919984735 77.93560521131668 L 496.5555478124484 77.91782741326139 L 496.9207214451583 77.90169956622252 L 497.2862335809179 77.88722328297132 L 497.6520476688184 77.87440001112407 L 498.0181271277558 77.86323103299723 L 498.3844353500893 77.85371746547936 L 498.75093570530186 77.84586025991925 L 499.1175915436634 77.83966020203091 L 499.4843661998957 77.83511791181498 L 499.85122299683866 77.83223384349667 L 500.2181252491184 77.83100828548042 L 500.5850362668154 77.83144136032102 L 500.9519193591336 77.83353302471133 L 501.3187378380696 77.83728306948667 L 501.6854550220811 77.84269111964568 L 502.05203423975536 77.84975663438786 L 502.41843883347605 77.85847890716761 L 502.78463216308916 77.86885706576493 L 503.1505776095669 77.88089007237258 L 503.5162385786696 77.89457672369997 L 503.88157850460493 77.90991565109336 L 504.24656085368485 77.92690532067277 L 504.61114912797865 77.94554403348543 L 504.97530686896266 77.96582992567558 L 505.3389976611662 77.9877609686709 L 505.70218513581324 78.01133496938536 L 506.06483297445885 78.03654957043855 L 506.42690491262147 78.06340225039138 L 506.7883647434089 78.09189032399821 L 507.1491763211394 78.12201094247544 L 507.5093035649558 78.15376109378631 L 507.86871046243385 78.18713760294216 L 508.2273610731833 78.22213713231986 L 508.58521953244195 78.25875618199568 L 508.94225005466205 78.29699109009513 L 509.298416937089 78.33683803315928 L 509.6536845633312 78.37829302652703 L 510.00801740692225 78.4213519247336 L 510.361380034873 78.46601042192502 L 510.71373711121504 78.51226405228881 L 511.0650534005345 78.56010819050047 L 511.41529377149516 78.60953805218607 L 511.7644232003518 78.66054869440059 L 512.1124067744524 78.71313501612235 L 512.4592096957297 78.767291758763 L 512.8047972841804 78.82301350669339 L 513.1491349813338 78.88029468778517 L 513.4921883537069 78.93912957396796 L 513.8339230962486 78.99951228180218 L 514.1743050357692 79.06143677306736 L 514.5133001343586 79.12489685536598 L 514.8508744927892 79.18988618274268 L 515.1869943539068 79.2563982563189 L 515.5216261060051 79.3244264249427 L 515.8547362861879 79.3939638858539 L 516.1862915837147 79.46500368536437 L 516.516258843332 79.53753871955335 L 516.844605068589 79.61156173497787 L 517.1712974251365 79.68706532939807 L 517.4963032440113 79.76404195251743 L 517.8195900249024 79.84248390673778 L 518.141125439401 79.92238334792908 L 518.4608773342336 80.00373228621379 L 518.7788137344771 80.08652258676585 L 519.0949028467567 80.17074597062422 L 519.4091130624242 80.2563940155207 L 519.7214129607202 80.34345815672215 L 520.0317713119149 80.43192968788702 L 520.3401570804319 80.52179976193594 L 520.6465394279513 80.61305939193636 L 520.9508877164939 80.70569945200134 L 521.2531715114841 80.79971067820209 L 521.5533605847945 80.89508366949431 L 521.8514249177679 80.99180888865837 L 522.1473347042194 81.08987666325294 L 522.4410603534169 81.18927718658229 L 522.7325724930403 81.29000051867692 L 523.0218419721185 81.39203658728756 L 523.3088398639447 81.49537518889237 L 523.593537468969 81.60000598971732 L 523.875906317668 81.7059185267695 L 524.155918173392 81.81310220888348 L 524.433545035189 81.92154631778035 L 524.7087591406041 82.03124000913962 L 524.9815329684562 82.14217231368353 L 525.2518392415897 82.25433213827411 L 525.5196509296024 82.36770826702232 L 525.7849412515491 82.4822893624098 L 526.0476836786183 82.59806396642249 L 526.3078519367864 82.71502050169644 L 526.5654200094443 82.83314727267563 L 526.8203621399995 82.95243246678137 L 527.0726528344513 83.07286415559366 L 527.3222668639405 83.19443029604399 L 527.5691792672723 83.3171187316196 L 527.8133653534119 83.44091719357918 L 528.0548007039542 83.5658133021797 L 528.2934611755657 83.69179456791439 L 528.5293229023977 83.81884839276164 L 528.7623622984742 83.94696207144486 L 528.9925560600498 84.07612279270293 L 529.2198811679402 84.20631764057138 L 529.444314889824 84.33753359567389 L 529.6658347825162 84.46975753652431 L 529.8844186942118 84.60297624083876 L 530.1000447667021 84.73717638685778 L 530.3126914375595 84.87234455467863 L 530.5223374422939 85.00846722759718 L 530.7289618164797 85.14553079345954 L 530.9325438978517 85.28352154602337 L 531.1330633283712 85.42242568632838 L 531.3305000562625 85.56222932407631 L 531.5248343380173 85.7029184790199 L 531.7160467403693 85.84447908236088 L 531.9041181422375 85.98689697815686 L 532.0890297366386 86.13015792473699 L 532.2707630325672 86.27424759612597 L 532.4492998568452 86.41915158347673 L 532.6246223559389 86.5648553965113 L 532.7967129977445 86.71134446496978 L 532.9655545733413 86.85860414006743 L 533.1311301987122 87.00661969595942 L 533.293423316433 87.15537633121352 L 533.4524176973268 87.30485917029017 L 533.6080974420884 87.45505326503005 L 533.7604469828726 87.6059435961488 L 533.9094510848528 87.75751507473909 L 534.0550948477425 87.90975254377936 L 534.1973637072871 88.06264077964957 L 534.336243436719 88.21616449365354 L 534.471720148181 88.3703083335478 L 534.603780294115 88.52505688507681 L 534.7324106686165 88.68039467351439 L 534.8575984087549 88.83630616521111 L 534.9793309958609 88.99277576914777 L 535.097596256777 89.14978783849435 L 535.2123823650758 89.30732667217475 L 535.323677842242 89.46537651643689 L 535.4314715588206 89.62392156642805 L 535.53575273553 89.78294596777536 L 535.6365109443391 89.9424338181712 L 535.7337361095113 90.10236916896342 L 535.8274185086109 90.26273602675025 L 535.9175487734761 90.42351835497952 L 536.0041178911556 90.5847000755524 L 536.0871172048097 90.74626507043118 L 536.1665384145762 90.90819718325096 L 536.2423735784004 91.07048022093545 L 536.314615112829 91.23309795531608 L 536.3832557937687 91.39603412475493 L 536.4482887572087 91.55927243577086 L 536.509707499907 91.72279656466878 L 536.5675058800404 91.88659015917209 L 536.6216781178189 92.0506368400578 L 536.6722187960639 92.21492020279456 L 536.71912286075 92.37942381918297 L 536.7623856215095 92.5441312389985 L 536.8020027521023 92.70902599163641 L 536.8379702908487 92.87409158775885 L 536.8702846410247 93.03931152094378 L 536.8989425712219 93.20466926933554 L 536.9239412156716 93.3701482972971 L 536.9452780745299 93.53573205706357 L 536.9629510141287 93.70140399039694 L 536.976958267189 93.86714753024195 L 536.987298432997 94.03294610238272 L 536.9939704775447 94.19878312710023 L 536.9969737336332 94.36464202083017 M 536.997159872181 147.192747274 L 536.995325318483 147.3586096507948 L 536.9898218408429 147.52445544149015 L 536.9806499896039 147.69026806164516 L 536.9678106819434 147.856030930136 L 536.9513052017816 148.02172747081397 L 536.9311351996525 148.18734111416308 L 536.9073026925398 148.352855298957 L 536.8798100636743 148.51825347391517 L 536.8486600622958 148.6835190993579 L 536.8138558033786 148.84863564886047 L 536.7754007673196 149.0135866109054 L 536.7332987995903 149.17835549053402 L 536.6875541103525 149.34292581099567 L 536.638171274037 149.50728111539541 L 536.5851552288859 149.67140496833977 L 536.5285112764601 149.83528095758027 L 536.4682450811073 149.9988926956545 L 536.404362669397 150.162223821525 L 536.3368704295169 150.32525800221532 L 536.2657751106349 150.48797893444322 L 536.1910838222236 150.65037034625112 L 536.1128040333497 150.81241599863313 L 536.0309435719266 150.97409968715903 L 535.9455106239326 151.13540524359476 L 535.856513732591 151.29631653751906 L 535.7639617975169 151.45681747793662 L 535.6678640738266 151.61689201488718 L 535.5682301712125 151.77652414105043 L 535.4650700529817 151.93569789334677 L 535.3583940350602 152.09439735453364 L 535.2482127849609 152.25260665479712 L 535.1345373207167 152.41030997333908 L 535.0173790097797 152.56749153995904 L 534.896749567883 152.72413563663136 L 534.7726610578707 152.88022659907688 L 534.6451258884899 153.03574881832947 L 534.5141568131517 153.19068674229675 L 534.3797669286541 153.34502487731547 L 534.2419696738739 153.49874778970073 L 534.1007788284214 153.65184010728942 L 533.9562085112639 153.80428652097734 L 533.8082731793122 153.95607178625016 L 533.6569876259766 154.10718072470783 L 533.5023669796861 154.25759822558246 L 533.3444267023767 154.40730924724926 L 533.1831825879443 154.55629881873085 L 533.0186507606661 154.70455204119426 L 532.8508476735877 154.85205408944077 L 532.6797901068779 154.99879021338845 L 532.505495166151 155.14474573954723 L 532.3279802807557 155.28990607248608 L 532.1472632020325 155.4342566962927 L 531.9633620015388 155.57778317602498 L 531.7762950692415 155.72047115915456 L 531.5860811116778 155.86230637700206 L 531.3927391500849 156.00327464616385 L 531.196288518498 156.14336186993052 L 530.9967488618165 156.2825540396964 L 530.7941401338397 156.42083723636054 L 530.5884825952717 156.55819763171849 L 530.3797968116947 156.69462148984516 L 530.1681036515135 156.8300951684685 L 529.9534242838675 156.96460512033343 L 529.7357801765147 157.09813789455694 L 529.5151930936843 157.23068013797288 L 529.2916850939009 157.3622185964673 L 529.0652785277781 157.49274011630405 L 528.835996035784 157.62223164543983 L 528.6038605459765 157.7506802348297 L 528.3688952717115 157.8780730397217 L 528.1311237093203 158.00439732094156 L 527.890569635761 158.1296404461664 L 527.6472571062407 158.2537898911881 L 527.4012104518093 158.37683324116554 L 527.1524542769275 158.49875819186633 L 526.9010134570054 158.61955255089697 L 526.6469131359155 158.7392042389222 L 526.390178723478 158.857701290873 L 526.1308358929203 158.97503185714285 L 525.8689105783094 159.09118420477293 L 525.6044289719584 159.20614671862526 L 525.3374175218075 159.3199079025443 L 525.0679029287794 159.43245638050635 L 524.7959121441086 159.54378089775753 L 524.521472366647 159.6538703219388 L 524.2446110401436 159.7627136441995 L 523.9653558505004 159.87029998029814 L 523.6837347230035 159.97661857169072 L 523.3997758195312 160.08165878660674 L 523.113507535737 160.18541012111223 L 522.8249584982109 160.28786220016016 L 522.5341575616161 160.38900477862808 L 522.2411338058039 160.48882774234235 L 521.9459165329058 160.5873211090898 L 521.648535264403 160.68447502961587 L 521.3490197381745 160.78027978860945 L 521.0473999055234 160.87472580567447 L 520.7437059281816 160.96780363628795 L 520.4379681752938 161.05950397274435 L 520.1302172203805 161.14981764508647 L 519.8204838382806 161.23873562202235 L 519.5087990020742 161.3262490118284 L 519.1951938799854 161.4123490632385 L 518.8796998322649 161.49702716631933 L 518.5623484080546 161.5802748533311 L 518.2431713422325 161.66208379957453 L 517.9222005522391 161.74244582422313 L 517.599468134886 161.82135289114143 L 517.2750063631461 161.89879710968845 L 516.948847682926 161.97477073550692 L 516.621024709822 162.04926617129755 L 516.2915702258583 162.12227596757884 L 515.9605171762086 162.193792823432 L 515.6278986659021 162.26380958723107 L 515.2937479565126 162.33231925735797 L 514.9580984628326 162.3993149829028 L 514.6209837495318 162.46479006434885 L 514.2824375278005 162.52873795424253 L 513.9424936519788 162.59115225784814 L 513.6011861161711 162.6520267337873 L 513.2585490508463 162.71135529466318 L 512.9146167194258 162.76913200766913 L 512.5694235148558 162.825351095182 L 512.2230039561691 162.88000693533985 L 511.87539268503315 162.93309406260425 L 511.52662446228516 162.98460716830672 L 511.17673416445683 163.03454110117957 L 510.8257567802864 163.08289086787119 L 510.47372740721977 163.12965163344512 L 510.12068124790085 163.17481872186386 L 509.76665360665146 163.21838761645614 L 509.4116798859406 163.26035396036883 L 509.05579558284467 163.3007135570025 L 508.6990362854973 163.33946237043114 L 508.34143766953093 163.3765965258057 L 507.9830354945092 163.41211230974156 L 507.62386560035094 163.44600617068994 L 507.26396390374623 163.47827471929298 L 506.90336639456484 163.50891472872274 L 506.54210913225717 163.53792313500378 L 506.1802282422484 163.56529703731965 L 505.817759912326 163.59103369830294 L 505.4547403890209 163.61513054430898 L 505.0912059739829 163.63758516567327 L 504.7271930203505 163.6583953169524 L 504.3627379291159 163.67755891714853 L 503.9978771454843 163.69507404991765 L 503.63264715523013 163.7109389637611 L 503.267084481048 163.72515207220067 L 502.9012256789008 163.73771195393735 L 502.5351073343638 163.7486173529935 L 502.1687660589663 163.75786717883824 L 501.8022384865306 163.7654605064967 L 501.4355612695085 163.7713965766425 L 501.0687710753162 163.77567479567352 L 500.70190458266734 163.77829473577142 L 500.3349984779056 163.7792561349444 L 499.96808945133563 163.77855889705333 L 499.6012141935543 163.7762030918214 L 499.2344093917817 163.7721889548272 L 498.86771172619234 163.76651688748106 L 498.50115786624724 163.75918745698502 L 498.1347844670268 163.750201396276 L 497.76862816556576 163.73955960395259 L 497.40272557718913 163.72726314418512 L 497.03711329185074 163.71331324660937 L 496.67182787047454 163.69771130620344 L 496.3069058412982 163.6804588831484 L 495.9423836962206 163.66155770267216 L 495.5782978871524 163.641009654877 L 495.2146848223712 163.61881679455058 L 494.8515808628804 163.5949813409605 L 494.4890223187733 163.56950567763215 L 494.1270454456024 163.5423923521107 L 493.76568644075314 163.5136440757061 L 493.40498143982495 163.48326372322205 L 493.0449665130174 163.45125433266847 L 492.6856776615231 163.4176191049577 L 492.32715081392774 163.38236140358455 L 491.96942182261745 163.3454847542897 L 491.6125264601931 163.30699284470745 L 491.25650041589364 163.26688952399658 L 490.9013792920268 163.2251788024558 L 490.54719860040893 163.18186485112247 L 490.19399375881414 163.13695200135567 L 489.84180008743226 163.09044474440293 L 489.4906528053369 163.04234773095118 L 489.1405870269636 162.99266577066166 L 488.79163775859854 162.94140383168906 L 488.4438398948778 162.88856704018454 L 488.0972282152978 162.83416067978317 L 487.75183738073775 162.7781901910757 L 487.40770192999327 162.7206611710644 L 487.06485627632264 162.66157937260323 L 486.72333470400554 162.60095070382283 L 486.3831713649146 162.53878122753963 L 486.0444002751002 162.47507716064936 L 485.7070553113891 162.40984487350565 L 485.37117020799656 162.34309088928288 L 485.03677855315294 162.27482188332382 L 484.7039137857451 162.2050446824722 L 484.37260919197234 162.13376626438992 L 484.04289790201807 162.0609937568594 L 483.71481288673647 161.98673443707077 L 483.3883869543556 161.91099573089411 L 483.0636527471967 161.83378521213695 L 482.74064273841003 161.75511060178678 L 482.4193892287271 161.6749797672391 L 482.09992434323124 161.59340072151056 L 481.7822800281448 161.51038162243782 L 481.4664880476345 161.42593077186152 L 481.1525799806353 161.3400566147964 L 480.8405872176924 161.25276773858656 L 480.5305409578219 161.16407287204694 L 480.2224722053916 161.0739808845902 L 479.91641176701995 160.9825007853401 L 479.61239024849573 160.8896417222303 L 479.3104380517174 160.7954129810897 L 479.0105853716531 160.6998239847139 L 478.7128621933209 160.6028842919229 L 478.41729828879056 160.50460359660516 L 478.1239232142062 160.40499172674836 L 477.8327663068308 160.30405864345644 L 477.5438566821125 160.20181443995364 L 477.25722323077304 160.0982693405751 L 476.9728946159186 159.99343369974446 L 476.6908992701738 159.88731800093845 L 476.4112653928382 159.77993285563852 L 476.1340209470665 159.6712890022697 L 475.85919365707224 159.56139730512683 L 475.5868110053554 159.450268753288 L 475.31690022995423 159.33791445951582 L 475.04948832172124 159.22434565914602 L 474.78460202162444 159.109573708964 L 474.52226781807315 158.99361008606917 L 474.262511944269 158.87646638672712 L 474.0053603755831 158.7581543252102 L 473.7508388269579 158.63868573262596 L 473.4989727503361 158.51807255573414 L 473.2497873321156 158.39632685575185 L 473.00330749063056 158.2734608071477 L 472.7595578736596 158.1494866964241 L 472.5185628559615 158.02441692088888 L 472.280346536837 157.8982639874153 L 472.0449327377196 157.77104051119164 L 471.812344999793 157.64275921445946 L 471.5826065816372 157.51343292524157 L 471.3557404569026 157.38307457605907 L 471.1317693120125 157.2516972026383 L 470.9107155438949 157.11931394260708 L 470.6926012577423 156.98593803418112 L 470.4774482648016 156.85158281484007 L 470.26527808019273 156.71626171999398 L 470.05611192075736 156.57998828163952 L 469.84997070293724 156.44277612700697 L 469.64687504068223 156.30463897719744 L 469.44684524338936 156.16559064581082 L 469.2499013138717 156.02564503756435 L 469.0560629463581 155.88481614690227 L 468.8653495245237 155.74311805659624 L 468.67778011955176 155.60056493633726 L 468.49337348822655 155.45717104131853 L 468.3121480710575 155.31295071081004 L 468.13412199043523 155.1679183667247 L 467.9593130488196 155.02208851217605 L 467.7877387269589 154.87547573002803 L 467.6194161821425 154.72809468143663 L 467.45436224648455 154.57996010438393 L 467.2925934252411 154.43108681220417 L 467.1341258951594 154.28148969210253 L 466.97897550286046 154.13118370366635 L 466.82715776325426 153.9801838773692 L 466.6786878579881 153.8285053130679 L 466.533580633929 153.6761631784925 L 466.39185060167824 153.52317270772943 L 466.253511934121 153.36954919969835 L 466.1185784650088 153.215308016622 L 465.9870636875761 153.0604645824902 L 465.85898075319096 152.90503438151728 L 465.7343424700402 152.74903295659385 L 465.6131613018482 152.59247590773236 L 465.49544936663085 152.43537889050728 L 465.3812184354835 152.27775761448936 L 465.2704799314041 152.1196278416749 L 465.16324492815085 151.9610053849094 L 465.05952414913463 151.80190610630635 L 464.9593279663469 151.64234591566102 L 464.8626663993225 151.4823407688595 L 464.7695491141376 151.32190666628316 L 464.679985422443 151.16105965120852 L 464.59398428053333 150.9998158082031 L 464.5115542884511 150.8381912615168 L 464.43270368912687 150.67620217346962 L 464.3574403675548 150.51386474283532 L 464.28577185000427 150.35119520322178 L 464.21770530326745 150.18820982144732 L 464.1532475339422 150.02492489591432 L 464.09240498775176 149.86135675497928 L 464.03518374890007 149.69752175531997 L 463.9815895394633 149.53343628029984 L 463.9316277188177 149.36911673832964 L 463.88530328310384 149.20457956122664 L 463.84262086472654 149.03984120257144 L 463.8035847318921 148.87491813606263 L 463.76819878818134 148.7098268538694 L 463.7364665721591 148.54458386498243 L 463.7083912570205 148.37920569356288 L 463.6839756502737 148.21370887729012 L 463.663222193459 148.0481099657078 L 463.6461329619048 147.88242551856908 L 463.63270966452006 147.71667210418067 L 463.6229536436233 147.55086629774584 L 463.61686587480847 147.38502467970707 L 463.61444696684737 147.21916383408794" stroke-miterlimit="10" stroke-width="4.27228394" stroke-dasharray=""/></g><g><g/><text fill="black" stroke="none" font-family="sans-serif" font-size="11pt" font-style="normal" font-weight="normal" text-decoration="normal" x="381.9020783699544" y="190.74491238000002" text-anchor="start" dominant-baseline="alphabetic" xml:space="preserve">SMART on FHIR (OAuth 2.0) Server</text></g><g><path fill="white" stroke="black" paint-order="fill stroke markers" d=" M 661.1863927715365 149.02731626 L 661.1863927715365 96.25204406 L 734.5691522115364 96.25204406 L 734.5691522115364 149.02731626" stroke-miterlimit="10" stroke-width="4.27228394" stroke-dasharray=""/><path fill="white" stroke="black" paint-order="fill stroke markers" d=" M 734.5691522115364 94.41747507400001 L 734.5673176578384 94.58333745079482 L 734.5618141801984 94.74918324149016 L 734.5526423289593 94.91499586164517 L 734.5398030212989 95.08075873013601 L 734.523297541137 95.24645527081398 L 734.5031275390081 95.41206891416309 L 734.4792950318954 95.577583098957 L 734.4518024030298 95.74298127391518 L 734.4206524016513 95.90824689935793 L 734.3858481427342 96.07336344886046 L 734.3473931066751 96.23831441090542 L 734.3052911389459 96.40308329053404 L 734.2595464497081 96.56765361099568 L 734.2101636133924 96.73200891539541 L 734.1571475682415 96.8961327683398 L 734.1005036158157 97.06000875758028 L 734.0402374204629 97.2236204956545 L 733.9763550087524 97.38695162152501 L 733.9088627688724 97.54998580221533 L 733.8377674499905 97.71270673444324 L 733.7630761615791 97.87509814625113 L 733.6847963727051 98.03714379863312 L 733.6029359112822 98.19882748715905 L 733.517502963288 98.36013304359476 L 733.4285060719465 98.52104433751906 L 733.3359541368724 98.68154527793664 L 733.2398564131821 98.8416198148872 L 733.140222510568 99.00125194105044 L 733.0370623923372 99.16042569334678 L 732.9303863744158 99.31912515453364 L 732.8202051243163 99.47733445479713 L 732.7065296600723 99.63503777333908 L 732.5893713491351 99.79221933995906 L 732.4687419072386 99.94886343663137 L 732.3446533972261 100.1049543990769 L 732.2171182278455 100.26047661832946 L 732.0861491525071 100.41541454229676 L 731.9517592680096 100.56975267731548 L 731.8139620132293 100.72347558970075 L 731.672771167777 100.87656790728944 L 731.5282008506193 101.02901432097735 L 731.3802655186678 101.18079958625017 L 731.2289799653321 101.33190852470784 L 731.0743593190417 101.48232602558247 L 730.9164190417322 101.63203704724927 L 730.7551749272999 101.78102661873088 L 730.5906431000217 101.92927984119427 L 730.4228400129432 102.07678188944078 L 730.2517824462335 102.22351801338847 L 730.0774875055065 102.36947353954723 L 729.8999726201112 102.51463387248609 L 729.7192555413881 102.6589844962927 L 729.5353543408944 102.80251097602499 L 729.348287408597 102.94519895915458 L 729.1580734510333 103.08703417700207 L 728.9647314894405 103.22800244616386 L 728.7682808578536 103.36808966993053 L 728.568741201172 103.50728183969642 L 728.3661324731952 103.64556503636055 L 728.1604749346271 103.7829254317185 L 727.9517891510503 103.91934928984519 L 727.740095990869 104.05482296846849 L 727.5254166232231 104.18933292033344 L 727.3077725158702 104.32286569455697 L 727.0871854330398 104.45540793797288 L 726.8636774332564 104.58694639646733 L 726.6372708671337 104.71746791630405 L 726.4079883751396 104.84695944543984 L 726.1758528853321 104.9754080348297 L 725.940887611067 105.10280083972172 L 725.7031160486757 105.22912512094157 L 725.4625619751165 105.35436824616642 L 725.2192494455961 105.4785176911881 L 724.9732027911649 105.60156104116555 L 724.7244466162831 105.72348599186634 L 724.473005796361 105.84428035089698 L 724.2189054752711 105.96393203892224 L 723.9621710628336 106.08242909087302 L 723.7028282322759 106.19975965714288 L 723.440902917665 106.31591200477295 L 723.176421311314 106.43087451862529 L 722.9094098611631 106.54463570254428 L 722.639895268135 106.65718418050638 L 722.3679044834641 106.76850869775753 L 722.0934647060025 106.87859812193881 L 721.816603379499 106.98744144419952 L 721.5373481898558 107.09502778029815 L 721.255727062359 107.20134637169073 L 720.9717681588867 107.30638658660675 L 720.6854998750925 107.41013792111224 L 720.3969508375665 107.51259000016019 L 720.1061499009717 107.61373257862807 L 719.8131261451595 107.71355554234235 L 719.5179088722614 107.81204890908982 L 719.2205276037586 107.9092028296159 L 718.92101207753 108.00500758860947 L 718.619392244879 108.09945360567448 L 718.3156982675372 108.19253143628795 L 718.0099605146494 108.28423177274436 L 717.7022095597359 108.3745454450865 L 717.392476177636 108.46346342202237 L 717.0807913414297 108.55097681182839 L 716.7671862193408 108.63707686323852 L 716.4516921716204 108.72175496631934 L 716.1343407474101 108.80500265333112 L 715.8151636815879 108.88681159957454 L 715.4941928915946 108.96717362422314 L 715.1714604742416 109.04608069114143 L 714.8469987025017 109.12352490968847 L 714.5208400222815 109.19949853550693 L 714.1930170491776 109.27399397129757 L 713.8635625652138 109.34700376757885 L 713.5325095155641 109.41852062343203 L 713.1998910052575 109.48853738723108 L 712.8657402958681 109.55704705735798 L 712.530090802188 109.62404278290282 L 712.1929760888872 109.68951786434887 L 711.854429867156 109.75346575424254 L 711.5144859913344 109.81588005784813 L 711.1731784555266 109.8767545337873 L 710.8305413902019 109.93608309466319 L 710.4866090587813 109.99385980766914 L 710.1414158542113 110.050078895182 L 709.7949962955247 110.10473473533986 L 709.4473850243887 110.15782186260427 L 709.0986168016407 110.20933496830673 L 708.7487265038123 110.2592689011796 L 708.397749119642 110.3076186678712 L 708.0457197465753 110.35437943344515 L 707.6926735872564 110.39954652186387 L 707.338645946007 110.44311541645615 L 706.9836722252961 110.48508176036883 L 706.6277879222001 110.52544135700252 L 706.2710286248528 110.56419017043116 L 705.9134300088864 110.6013243258057 L 705.5550278338648 110.63684010974157 L 705.1958579397065 110.67073397068995 L 704.8359562431017 110.70300251929301 L 704.4753587339203 110.73364252872275 L 704.1141014716127 110.76265093500379 L 703.7522205816039 110.79002483731966 L 703.3897522516816 110.81576149830295 L 703.0267327283764 110.83985834430901 L 702.6631983133384 110.8623129656733 L 702.299185359706 110.8831231169524 L 701.9347302684714 110.90228671714854 L 701.5698694848398 110.91980184991768 L 701.2046394945856 110.9356667637611 L 700.8390768204035 110.94987987220067 L 700.4732180182564 110.96243975393737 L 700.1070996737193 110.9733451529935 L 699.7407583983218 110.98259497883825 L 699.3742308258861 110.99018830649673 L 699.007553608864 110.99612437664251 L 698.6407634146717 111.00040259567353 L 698.2738969220229 111.00302253577144 L 697.9069908172611 111.00398393494442 L 697.5400817906911 111.00328669705333 L 697.1732065329098 111.00093089182141 L 696.8064017311373 110.99691675482721 L 696.4397040655479 110.99124468748109 L 696.0731502056027 110.98391525698503 L 695.7067768063823 110.97492919627601 L 695.3406205049213 110.96428740395258 L 694.9747179165446 110.95199094418513 L 694.6091056312063 110.93804104660938 L 694.2438202098301 110.92243910620346 L 693.8788981806538 110.90518668314841 L 693.5143760355761 110.88628550267217 L 693.150290226508 110.865737454877 L 692.7866771617267 110.8435445945506 L 692.423573202236 110.81970914096048 L 692.0610146581289 110.79423347763216 L 691.6990377849579 110.76712015211072 L 691.3376787801086 110.73837187570612 L 690.9769737791805 110.70799152322208 L 690.6169588523729 110.67598213266848 L 690.2576700008786 110.64234690495772 L 689.8991431532833 110.60708920358456 L 689.541414161973 110.57021255428974 L 689.1845187995486 110.53172064470745 L 688.8284927552492 110.49161732399659 L 688.4733716313823 110.4499066024558 L 688.1191909397645 110.4065926511225 L 687.7659860981697 110.36167980135568 L 687.4137924267877 110.31517254440293 L 687.0626451446924 110.26707553095117 L 686.7125793663191 110.21739357066168 L 686.363630097954 110.16613163168908 L 686.0158322342332 110.11329484018454 L 685.6692205546533 110.05888847978319 L 685.3238297200933 110.00291799107573 L 684.9796942693488 109.94538897106439 L 684.6368486156782 109.88630717260322 L 684.2953270433611 109.82567850382286 L 683.9551637042701 109.76350902753963 L 683.6163926144558 109.69980496064936 L 683.2790476507447 109.63457267350567 L 682.943162547352 109.56781868928289 L 682.6087708925085 109.49954968332383 L 682.2759061251006 109.4297724824722 L 681.9446015313279 109.35849406438993 L 681.6148902413736 109.28572155685941 L 681.2868052260919 109.21146223707079 L 680.9603792937111 109.13572353089413 L 680.6356450865522 109.05851301213696 L 680.3126350777655 108.9798384017868 L 679.9913815680826 108.8997075672391 L 679.6719166825867 108.81812852151059 L 679.3542723675002 108.73510942243782 L 679.03848038699 108.65065857186153 L 678.7245723199909 108.5647844147964 L 678.4125795570479 108.47749553858658 L 678.1025332971775 108.38880067204694 L 677.7944645447471 108.29870868459024 L 677.4884041063755 108.20722858534012 L 677.1843825878512 108.1143695222303 L 676.882430391073 108.0201407810897 L 676.5825777110086 107.9245517847139 L 676.2848545326764 107.82761209192289 L 675.989290628146 107.72933139660518 L 675.6959155535617 107.62971952674836 L 675.4047586461863 107.52878644345645 L 675.1158490214681 107.42654223995365 L 674.8292155701286 107.3229971405751 L 674.5448869552741 107.21816149974445 L 674.2628916095293 107.11204580093845 L 673.9832577321937 107.00466065563852 L 673.706013286422 106.89601680226971 L 673.4311859964278 106.78612510512683 L 673.1588033447109 106.67499655328801 L 672.8888925693097 106.56264225951583 L 672.6214806610767 106.44907345914604 L 672.3565943609799 106.33430150896402 L 672.0942601574286 106.21833788606916 L 671.8345042836246 106.10119418672713 L 671.5773527149386 105.98288212521021 L 671.3228311663133 105.86341353262598 L 671.0709650896916 105.74280035573415 L 670.8217796714712 105.62105465575188 L 670.5752998299861 105.49818860714771 L 670.3315502130151 105.37421449642413 L 670.0905551953169 105.24914472088889 L 669.8523388761926 105.12299178741533 L 669.6169250770752 104.99576831119165 L 669.3843373391485 104.86748701445948 L 669.1545989209927 104.73816072524157 L 668.9277327962582 104.60780237605908 L 668.703761651368 104.4764250026383 L 668.4827078832504 104.34404174260709 L 668.2645935970978 104.21066583418111 L 668.0494406041571 104.0763106148401 L 667.8372704195482 103.94098951999399 L 667.6281042601129 103.80471608163953 L 667.4219630422928 103.66750392700698 L 667.2188673800378 103.52936677719745 L 667.0188375827449 103.39031844581083 L 666.8218936532272 103.25037283756437 L 666.6280552857136 103.10954394690228 L 666.4373418638792 102.96784585659626 L 666.2497724589073 102.82529273633727 L 666.0653658275821 102.68189884131853 L 665.884140410413 102.53767851081007 L 665.7061143297908 102.39264616672473 L 665.531305388175 102.24681631217608 L 665.3597310663145 102.10020353002803 L 665.191408521498 101.95282248143664 L 665.0263545858401 101.80468790438394 L 664.8645857645965 101.65581461220418 L 664.7061182345149 101.50621749210254 L 664.550967842216 101.35591150366636 L 664.3991501026097 101.20491167736921 L 664.2506801973436 101.05323311306792 L 664.1055729732844 100.90089097849248 L 663.9638429410337 100.74790050772944 L 663.8255042734766 100.59427699969835 L 663.6905708043644 100.44003581662203 L 663.5590560269316 100.28519238249021 L 663.4309730925465 100.1297621815173 L 663.3063348093957 99.97376075659385 L 663.1851536412037 99.81720370773238 L 663.0674417059863 99.66010669050728 L 662.953210774839 99.50248541448939 L 662.8424722707597 99.34435564167492 L 662.7352372675064 99.18573318490942 L 662.6315164884901 99.02663390630637 L 662.5313203057025 98.86707371566104 L 662.4346587386781 98.70706856885951 L 662.341541453493 98.54663446628317 L 662.2519777617986 98.38578745120854 L 662.1659766198889 98.22454360820312 L 662.0835466278066 98.06291906151681 L 662.0046960284824 97.90092997346962 L 661.9294327069102 97.73859254283535 L 661.8577641893598 97.57592300322177 L 661.789697642623 97.41293762144731 L 661.7252398732977 97.24965269591432 L 661.6643973271073 97.08608455497928 L 661.6071760882555 96.92224955531998 L 661.5535818788188 96.75816408029984 L 661.5036200581733 96.59384453832965 L 661.4572956224594 96.42930736122665 L 661.414613204082 96.26456900257145 L 661.3755770712477 96.09964593606264 L 661.3401911275369 95.93455465386943 L 661.3084589115145 95.76931166498245 L 661.2803835963759 95.6039334935629 L 661.2559679896292 95.43843667729011 L 661.2352145328146 95.27283776570779 L 661.2181253012603 95.1071533185691 L 661.2047020038756 94.94139990418068 L 661.1949459829789 94.77559409774585 L 661.188858214164 94.60975247970708 L 661.1864393062029 94.44389163408796 L 661.1876895009843 94.27802814683484 L 661.1926086734899 94.11217860415825 L 661.2011963318063 93.94635959087422 L 661.213451617175 93.78058768874591 L 661.2293733040777 93.61487947482539 L 661.2489598003589 93.44925151979595 L 661.2722091473852 93.28372038631508 L 661.2991190202415 93.1183026273582 L 661.3296867279628 92.95301478456334 L 661.3639092138038 92.78787338657703 L 661.4017830555445 92.62289494740149 L 661.4433044658322 92.45809596474311 L 661.4884692925605 92.29349291836286 L 661.5372730192844 92.12910226842818 L 661.5897107656718 91.9649404538671 L 661.6457772879919 91.80102389072425 L 661.7054669796391 91.63736897051936 L 661.7687738716941 91.47399205860808 L 661.8356916335202 91.31090949254543 L 661.9062135733973 91.14813758045214 L 661.9803326391899 90.98569259938377 L 662.0580414190533 90.82359079370305 L 662.1393321421743 90.66184837345546 L 662.2241966795484 90.50048151274825 L 662.3126265447924 90.33950634813301 L 662.4046128949935 90.17893897699207 L 662.5001465315934 90.01879545592872 L 662.5992179013081 89.85909179916163 L 662.7018170970831 89.69984397692338 L 662.8079338590843 89.54106791386349 L 662.917557575724 89.38277948745596 L 663.030677284722 89.2249945264115 L 663.1472816742014 89.06772880909477 L 663.2673590838206 88.91099806194642 L 663.3908975059386 88.75481795791055 L 663.5178845868162 88.59920411486743 L 663.6483076278511 88.44417209407167 L 663.7821535868479 88.28973739859619 L 663.9194090793223 88.1359154717818 L 664.0600603798395 87.98272169569302 L 664.2040934233863 87.83017138957979 L 664.3514938067788 87.67827980834561 L 664.5022467901013 87.52706214102201 L 664.6563372981809 87.37653350924973 L 664.8137499220956 87.22670896576648 L 664.9744689207139 87.07760349290177 L 665.13847822227 86.92923200107863 L 665.3057614259703 86.7816093273226 L 665.476301803634 86.63475023377804 L 665.6500823013653 86.48866940623192 L 665.8270855412592 86.34338145264526 L 666.0072938231394 86.19890090169235 L 666.1906891263278 86.05524220130788 L 666.377253111447 85.91241971724217 L 666.5669671222537 85.77044773162461 L 666.7598121875052 85.62934044153546 L 666.9557690228554 85.48911195758615 L 667.1548180327844 85.34977630250819 L 667.3569393125568 85.21134740975099 L 667.5621126502132 85.07383912208846 L 667.7703175285907 84.9372651902348 L 667.9815331273751 84.80163927146936 L 668.1957383251824 84.66697492827099 L 668.4129117016714 84.53328562696181 L 668.6330315396855 84.40058473636054 L 668.8560758274242 84.26888552644567 L 669.0820222606446 84.1382011670284 L 669.3108482448918 84.00854472643582 L 669.542530897758 83.8799291702039 L 669.7770470511708 83.75236735978109 L 670.0143732537105 83.62587205124215 L 670.2544857729546 83.50045589401252 L 670.4973605978512 83.3761314296034 L 670.7429734411203 83.25291109035763 L 670.991299741682 83.13080719820645 L 671.2423146671135 83.00983196343734 L 671.4959931161313 82.88999748347292 L 671.7523097211019 82.77131574166137 L 672.0112388505785 82.65379860607796 L 672.2727546118637 82.53745782833829 L 672.5368308535994 82.42230504242323 L 672.8034411683816 82.30835176351538 L 673.0725588954008 82.19560938684766 L 673.3441571231087 82.08408918656382 L 673.6182086919089 81.97380231459091 L 673.8946861968728 81.86475979952428 L 674.1735619904804 81.7569725455245 L 674.4548081853845 81.65045133122722 L 674.7383966572003 81.54520680866504 L 675.0242990473166 81.44124950220255 L 675.312486765733 81.33858980748376 L 675.6029309939175 81.23723799039259 L 675.8956026876896 81.13720418602627 L 676.1904725801236 81.0384983976819 L 676.487511184476 80.94113049585604 L 676.786688797134 80.84511021725777 L 677.0879755005856 80.75044716383489 L 677.3913411664115 80.65715080181388 L 677.696755458298 80.56523046075318 L 678.0041878350703 80.47469533261032 L 678.313607553747 80.38555447082265 L 678.6249836726141 80.29781678940206 L 678.9382850543191 80.2114910620436 L 679.253480368985 80.12658592124805 L 679.5705380973429 80.04310985745875 L 679.8894265338844 79.9610712182125 L 680.2101137900313 79.88047820730485 L 680.5325677973253 79.80133888396976 L 680.8567563106345 79.7236611620736 L 681.1826469113777 79.64745280932382 L 681.5102070107663 79.57272144649221 L 681.8394038530635 79.49947454665276 L 682.1702045188591 79.42771943443441 L 682.5025759283625 79.3574632852886 L 682.8364848447095 79.2887131247717 L 683.1718978772868 79.22147582784245 L 683.5087814850708 79.15575811817455 L 683.8471019799813 79.09156656748415 L 684.1868255302508 79.02890759487286 L 684.5279181638072 78.96778746618574 L 684.8703457716716 78.90821229338468 L 685.2140741113685 78.85018803393734 L 685.5590688103505 78.79372049022132 L 685.9052953694348 78.73881530894393 L 686.2527191662545 78.68547798057753 L 686.6013054587191 78.63371383881052 L 686.9510193884901 78.58352806001395 L 687.3018259844657 78.53492566272385 L 687.6536901662787 78.48791150713947 L 688.0065767478043 78.44249029463718 L 688.3604504406782 78.39866656730038 L 688.7152758578262 78.3564447074653 L 689.0710175170021 78.31582893728272 L 689.4276398443366 78.27682331829581 L 689.785107177894 78.23943175103399 L 690.1433837712389 78.20365797462279 L 690.5024337970106 78.16950556641007 L 690.8622213505056 78.13697794160818 L 691.2227104532684 78.1060783529525 L 691.5838650566892 78.07680989037613 L 691.9456490456085 78.04917548070094 L 692.3080262419292 78.02317788734487 L 692.6709604082332 77.99881971004561 L 693.0344152514066 77.97610338460058 L 693.3983544262679 77.95503118262339 L 693.7627415392029 77.93560521131668 L 694.1275401518039 77.91782741326139 L 694.4927137845137 77.90169956622252 L 694.8582259202734 77.88722328297132 L 695.2240400081739 77.87440001112407 L 695.5901194671113 77.86323103299723 L 695.9564276894448 77.85371746547936 L 696.3229280446574 77.84586025991925 L 696.6895838830189 77.83966020203091 L 697.0563585392513 77.83511791181498 L 697.4232153361942 77.83223384349667 L 697.7901175884739 77.83100828548042 L 698.1570286061709 77.83144136032102 L 698.5239116984891 77.83353302471133 L 698.8907301774251 77.83728306948667 L 699.2574473614367 77.84269111964568 L 699.6240265791108 77.84975663438786 L 699.9904311728316 77.85847890716761 L 700.3566245024447 77.86885706576493 L 700.7225699489225 77.88089007237258 L 701.088230918025 77.89457672369997 L 701.4535708439604 77.90991565109336 L 701.8185531930404 77.92690532067277 L 702.1831414673342 77.94554403348543 L 702.5472992083181 77.96582992567558 L 702.9109900005217 77.9877609686709 L 703.2741774751687 78.01133496938536 L 703.6368253138144 78.03654957043855 L 703.9988972519769 78.06340225039138 L 704.3603570827645 78.09189032399821 L 704.721168660495 78.12201094247544 L 705.0812959043113 78.15376109378631 L 705.4407028017894 78.18713760294216 L 705.7993534125388 78.22213713231986 L 706.1572118717975 78.25875618199568 L 706.5142423940175 78.29699109009513 L 706.8704092764444 78.33683803315928 L 707.2256769026867 78.37829302652703 L 707.5800097462777 78.4213519247336 L 707.9333723742285 78.46601042192502 L 708.2857294505706 78.51226405228881 L 708.63704573989 78.56010819050047 L 708.9872861108507 78.60953805218607 L 709.3364155397073 78.66054869440059 L 709.684399113808 78.71313501612235 L 710.0312020350852 78.767291758763 L 710.376789623536 78.82301350669339 L 710.7211273206892 78.88029468778517 L 711.0641806930624 78.93912957396796 L 711.405915435604 78.99951228180218 L 711.7462973751248 79.06143677306736 L 712.085292473714 79.12489685536598 L 712.4228668321448 79.18988618274268 L 712.7589866932623 79.2563982563189 L 713.0936184453607 79.3244264249427 L 713.4267286255434 79.3939638858539 L 713.7582839230702 79.46500368536437 L 714.0882511826875 79.53753871955335 L 714.4165974079444 79.61156173497787 L 714.743289764492 79.68706532939807 L 715.0682955833669 79.76404195251743 L 715.3915823642579 79.84248390673778 L 715.7131177787564 79.92238334792908 L 716.0328696735891 80.00373228621379 L 716.3508060738326 80.08652258676585 L 716.6668951861121 80.17074597062422 L 716.9811054017797 80.2563940155207 L 717.2934053000756 80.34345815672215 L 717.6037636512704 80.43192968788702 L 717.9121494197874 80.52179976193594 L 718.2185317673069 80.61305939193636 L 718.5228800558493 80.70569945200134 L 718.8251638508395 80.79971067820209 L 719.12535292415 80.89508366949431 L 719.4234172571234 80.99180888865837 L 719.7193270435749 81.08987666325294 L 720.0130526927724 81.18927718658229 L 720.3045648323958 81.29000051867692 L 720.5938343114741 81.39203658728756 L 720.8808322033003 81.49537518889237 L 721.1655298083245 81.60000598971732 L 721.4478986570234 81.7059185267695 L 721.7279105127475 81.81310220888348 L 722.0055373745446 81.92154631778035 L 722.2807514799597 82.03124000913962 L 722.5535253078117 82.14217231368353 L 722.8238315809452 82.25433213827411 L 723.091643268958 82.36770826702232 L 723.3569335909046 82.4822893624098 L 723.6196760179738 82.59806396642249 L 723.8798442761419 82.71502050169644 L 724.1374123487998 82.83314727267563 L 724.392354479355 82.95243246678137 L 724.6446451738068 83.07286415559366 L 724.8942592032961 83.19443029604399 L 725.1411716066277 83.3171187316196 L 725.3853576927673 83.44091719357918 L 725.6267930433098 83.5658133021797 L 725.8654535149211 83.69179456791439 L 726.1013152417531 83.81884839276164 L 726.3343546378297 83.94696207144486 L 726.5645483994053 84.07612279270293 L 726.7918735072957 84.20631764057138 L 727.0163072291796 84.33753359567389 L 727.2378271218716 84.46975753652431 L 727.4564110335674 84.60297624083876 L 727.6720371060577 84.73717638685778 L 727.8846837769149 84.87234455467863 L 728.0943297816494 85.00846722759718 L 728.3009541558353 85.14553079345954 L 728.5045362372072 85.28352154602337 L 728.7050556677268 85.42242568632838 L 728.9024923956181 85.56222932407631 L 729.0968266773727 85.7029184790199 L 729.2880390797247 85.84447908236088 L 729.476110481593 85.98689697815686 L 729.6610220759941 86.13015792473699 L 729.8427553719227 86.27424759612597 L 730.0212921962008 86.41915158347673 L 730.1966146952944 86.5648553965113 L 730.3687053371 86.71134446496978 L 730.5375469126967 86.85860414006743 L 730.7031225380678 87.00661969595942 L 730.8654156557884 87.15537633121352 L 731.0244100366824 87.30485917029017 L 731.1800897814438 87.45505326503005 L 731.3324393222282 87.6059435961488 L 731.4814434242082 87.75751507473909 L 731.627087187098 87.90975254377936 L 731.7693560466425 88.06264077964957 L 731.9082357760744 88.21616449365354 L 732.0437124875366 88.3703083335478 L 732.1757726334706 88.52505688507681 L 732.304403007972 88.68039467351439 L 732.4295907481105 88.83630616521111 L 732.5513233352165 88.99277576914777 L 732.6695885961326 89.14978783849435 L 732.7843747044313 89.30732667217475 L 732.8956701815974 89.46537651643689 L 733.0034638981762 89.62392156642805 L 733.1077450748854 89.78294596777536 L 733.2085032836947 89.9424338181712 L 733.3057284488667 90.10236916896342 L 733.3994108479664 90.26273602675025 L 733.4895411128316 90.42351835497952 L 733.5761102305111 90.5847000755524 L 733.6591095441652 90.74626507043118 L 733.7385307539317 90.90819718325096 L 733.8143659177558 91.07048022093545 L 733.8866074521844 91.23309795531608 L 733.9552481331242 91.39603412475493 L 734.0202810965643 91.55927243577086 L 734.0816998392626 91.72279656466878 L 734.1394982193958 91.88659015917209 L 734.1936704571743 92.0506368400578 L 734.2442111354195 92.21492020279456 L 734.2911152001054 92.37942381918297 L 734.3343779608649 92.5441312389985 L 734.3739950914579 92.70902599163641 L 734.4099626302043 92.87409158775885 L 734.4422769803801 93.03931152094378 L 734.4709349105775 93.20466926933554 L 734.4959335550271 93.3701482972971 L 734.5172704138854 93.53573205706357 L 734.5349433534843 93.70140399039694 L 734.5489506065445 93.86714753024195 L 734.5592907723525 94.03294610238272 L 734.5659628169002 94.19878312710023 L 734.5689660729887 94.36464202083017 M 734.5691522115364 147.192747274 L 734.5673176578384 147.3586096507948 L 734.5618141801984 147.52445544149015 L 734.5526423289593 147.69026806164516 L 734.5398030212989 147.856030930136 L 734.523297541137 148.02172747081397 L 734.5031275390081 148.18734111416308 L 734.4792950318954 148.352855298957 L 734.4518024030298 148.51825347391517 L 734.4206524016513 148.6835190993579 L 734.3858481427342 148.84863564886047 L 734.3473931066751 149.0135866109054 L 734.3052911389459 149.17835549053402 L 734.2595464497081 149.34292581099567 L 734.2101636133924 149.50728111539541 L 734.1571475682415 149.67140496833977 L 734.1005036158157 149.83528095758027 L 734.0402374204629 149.9988926956545 L 733.9763550087524 150.162223821525 L 733.9088627688724 150.32525800221532 L 733.8377674499905 150.48797893444322 L 733.7630761615791 150.65037034625112 L 733.6847963727051 150.81241599863313 L 733.6029359112822 150.97409968715903 L 733.517502963288 151.13540524359476 L 733.4285060719465 151.29631653751906 L 733.3359541368724 151.45681747793662 L 733.2398564131821 151.61689201488718 L 733.140222510568 151.77652414105043 L 733.0370623923372 151.93569789334677 L 732.9303863744158 152.09439735453364 L 732.8202051243163 152.25260665479712 L 732.7065296600723 152.41030997333908 L 732.5893713491351 152.56749153995904 L 732.4687419072386 152.72413563663136 L 732.3446533972261 152.88022659907688 L 732.2171182278455 153.03574881832947 L 732.0861491525071 153.19068674229675 L 731.9517592680096 153.34502487731547 L 731.8139620132293 153.49874778970073 L 731.672771167777 153.65184010728942 L 731.5282008506193 153.80428652097734 L 731.3802655186678 153.95607178625016 L 731.2289799653321 154.10718072470783 L 731.0743593190417 154.25759822558246 L 730.9164190417322 154.40730924724926 L 730.7551749272999 154.55629881873085 L 730.5906431000217 154.70455204119426 L 730.4228400129432 154.85205408944077 L 730.2517824462335 154.99879021338845 L 730.0774875055065 155.14474573954723 L 729.8999726201112 155.28990607248608 L 729.7192555413881 155.4342566962927 L 729.5353543408944 155.57778317602498 L 729.348287408597 155.72047115915456 L 729.1580734510333 155.86230637700206 L 728.9647314894405 156.00327464616385 L 728.7682808578536 156.14336186993052 L 728.568741201172 156.2825540396964 L 728.3661324731952 156.42083723636054 L 728.1604749346271 156.55819763171849 L 727.9517891510503 156.69462148984516 L 727.740095990869 156.8300951684685 L 727.5254166232231 156.96460512033343 L 727.3077725158702 157.09813789455694 L 727.0871854330398 157.23068013797288 L 726.8636774332564 157.3622185964673 L 726.6372708671337 157.49274011630405 L 726.4079883751396 157.62223164543983 L 726.1758528853321 157.7506802348297 L 725.940887611067 157.8780730397217 L 725.7031160486757 158.00439732094156 L 725.4625619751165 158.1296404461664 L 725.2192494455961 158.2537898911881 L 724.9732027911649 158.37683324116554 L 724.7244466162831 158.49875819186633 L 724.473005796361 158.61955255089697 L 724.2189054752711 158.7392042389222 L 723.9621710628336 158.857701290873 L 723.7028282322759 158.97503185714285 L 723.440902917665 159.09118420477293 L 723.176421311314 159.20614671862526 L 722.9094098611631 159.3199079025443 L 722.639895268135 159.43245638050635 L 722.3679044834641 159.54378089775753 L 722.0934647060025 159.6538703219388 L 721.816603379499 159.7627136441995 L 721.5373481898558 159.87029998029814 L 721.255727062359 159.97661857169072 L 720.9717681588867 160.08165878660674 L 720.6854998750925 160.18541012111223 L 720.3969508375665 160.28786220016016 L 720.1061499009717 160.38900477862808 L 719.8131261451595 160.48882774234235 L 719.5179088722614 160.5873211090898 L 719.2205276037586 160.68447502961587 L 718.92101207753 160.78027978860945 L 718.619392244879 160.87472580567447 L 718.3156982675372 160.96780363628795 L 718.0099605146494 161.05950397274435 L 717.7022095597359 161.14981764508647 L 717.392476177636 161.23873562202235 L 717.0807913414297 161.3262490118284 L 716.7671862193408 161.4123490632385 L 716.4516921716204 161.49702716631933 L 716.1343407474101 161.5802748533311 L 715.8151636815879 161.66208379957453 L 715.4941928915946 161.74244582422313 L 715.1714604742416 161.82135289114143 L 714.8469987025017 161.89879710968845 L 714.5208400222815 161.97477073550692 L 714.1930170491776 162.04926617129755 L 713.8635625652138 162.12227596757884 L 713.5325095155641 162.193792823432 L 713.1998910052575 162.26380958723107 L 712.8657402958681 162.33231925735797 L 712.530090802188 162.3993149829028 L 712.1929760888872 162.46479006434885 L 711.854429867156 162.52873795424253 L 711.5144859913344 162.59115225784814 L 711.1731784555266 162.6520267337873 L 710.8305413902019 162.71135529466318 L 710.4866090587813 162.76913200766913 L 710.1414158542113 162.825351095182 L 709.7949962955247 162.88000693533985 L 709.4473850243887 162.93309406260425 L 709.0986168016407 162.98460716830672 L 708.7487265038123 163.03454110117957 L 708.397749119642 163.08289086787119 L 708.0457197465753 163.12965163344512 L 707.6926735872564 163.17481872186386 L 707.338645946007 163.21838761645614 L 706.9836722252961 163.26035396036883 L 706.6277879222001 163.3007135570025 L 706.2710286248528 163.33946237043114 L 705.9134300088864 163.3765965258057 L 705.5550278338648 163.41211230974156 L 705.1958579397065 163.44600617068994 L 704.8359562431017 163.47827471929298 L 704.4753587339203 163.50891472872274 L 704.1141014716127 163.53792313500378 L 703.7522205816039 163.56529703731965 L 703.3897522516816 163.59103369830294 L 703.0267327283764 163.61513054430898 L 702.6631983133384 163.63758516567327 L 702.299185359706 163.6583953169524 L 701.9347302684714 163.67755891714853 L 701.5698694848398 163.69507404991765 L 701.2046394945856 163.7109389637611 L 700.8390768204035 163.72515207220067 L 700.4732180182564 163.73771195393735 L 700.1070996737193 163.7486173529935 L 699.7407583983218 163.75786717883824 L 699.3742308258861 163.7654605064967 L 699.007553608864 163.7713965766425 L 698.6407634146717 163.77567479567352 L 698.2738969220229 163.77829473577142 L 697.9069908172611 163.7792561349444 L 697.5400817906911 163.77855889705333 L 697.1732065329098 163.7762030918214 L 696.8064017311373 163.7721889548272 L 696.4397040655479 163.76651688748106 L 696.0731502056027 163.75918745698502 L 695.7067768063823 163.750201396276 L 695.3406205049213 163.73955960395259 L 694.9747179165446 163.72726314418512 L 694.6091056312063 163.71331324660937 L 694.2438202098301 163.69771130620344 L 693.8788981806538 163.6804588831484 L 693.5143760355761 163.66155770267216 L 693.150290226508 163.641009654877 L 692.7866771617267 163.61881679455058 L 692.423573202236 163.5949813409605 L 692.0610146581289 163.56950567763215 L 691.6990377849579 163.5423923521107 L 691.3376787801086 163.5136440757061 L 690.9769737791805 163.48326372322205 L 690.6169588523729 163.45125433266847 L 690.2576700008786 163.4176191049577 L 689.8991431532833 163.38236140358455 L 689.541414161973 163.3454847542897 L 689.1845187995486 163.30699284470745 L 688.8284927552492 163.26688952399658 L 688.4733716313823 163.2251788024558 L 688.1191909397645 163.18186485112247 L 687.7659860981697 163.13695200135567 L 687.4137924267877 163.09044474440293 L 687.0626451446924 163.04234773095118 L 686.7125793663191 162.99266577066166 L 686.363630097954 162.94140383168906 L 686.0158322342332 162.88856704018454 L 685.6692205546533 162.83416067978317 L 685.3238297200933 162.7781901910757 L 684.9796942693488 162.7206611710644 L 684.6368486156782 162.66157937260323 L 684.2953270433611 162.60095070382283 L 683.9551637042701 162.53878122753963 L 683.6163926144558 162.47507716064936 L 683.2790476507447 162.40984487350565 L 682.943162547352 162.34309088928288 L 682.6087708925085 162.27482188332382 L 682.2759061251006 162.2050446824722 L 681.9446015313279 162.13376626438992 L 681.6148902413736 162.0609937568594 L 681.2868052260919 161.98673443707077 L 680.9603792937111 161.91099573089411 L 680.6356450865522 161.83378521213695 L 680.3126350777655 161.75511060178678 L 679.9913815680826 161.6749797672391 L 679.6719166825867 161.59340072151056 L 679.3542723675002 161.51038162243782 L 679.03848038699 161.42593077186152 L 678.7245723199909 161.3400566147964 L 678.4125795570479 161.25276773858656 L 678.1025332971775 161.16407287204694 L 677.7944645447471 161.0739808845902 L 677.4884041063755 160.9825007853401 L 677.1843825878512 160.8896417222303 L 676.882430391073 160.7954129810897 L 676.5825777110086 160.6998239847139 L 676.2848545326764 160.6028842919229 L 675.989290628146 160.50460359660516 L 675.6959155535617 160.40499172674836 L 675.4047586461863 160.30405864345644 L 675.1158490214681 160.20181443995364 L 674.8292155701286 160.0982693405751 L 674.5448869552741 159.99343369974446 L 674.2628916095293 159.88731800093845 L 673.9832577321937 159.77993285563852 L 673.706013286422 159.6712890022697 L 673.4311859964278 159.56139730512683 L 673.1588033447109 159.450268753288 L 672.8888925693097 159.33791445951582 L 672.6214806610767 159.22434565914602 L 672.3565943609799 159.109573708964 L 672.0942601574286 158.99361008606917 L 671.8345042836246 158.87646638672712 L 671.5773527149386 158.7581543252102 L 671.3228311663133 158.63868573262596 L 671.0709650896916 158.51807255573414 L 670.8217796714712 158.39632685575185 L 670.5752998299861 158.2734608071477 L 670.3315502130151 158.1494866964241 L 670.0905551953169 158.02441692088888 L 669.8523388761926 157.8982639874153 L 669.6169250770752 157.77104051119164 L 669.3843373391485 157.64275921445946 L 669.1545989209927 157.51343292524157 L 668.9277327962582 157.38307457605907 L 668.703761651368 157.2516972026383 L 668.4827078832504 157.11931394260708 L 668.2645935970978 156.98593803418112 L 668.0494406041571 156.85158281484007 L 667.8372704195482 156.71626171999398 L 667.6281042601129 156.57998828163952 L 667.4219630422928 156.44277612700697 L 667.2188673800378 156.30463897719744 L 667.0188375827449 156.16559064581082 L 666.8218936532272 156.02564503756435 L 666.6280552857136 155.88481614690227 L 666.4373418638792 155.74311805659624 L 666.2497724589073 155.60056493633726 L 666.0653658275821 155.45717104131853 L 665.884140410413 155.31295071081004 L 665.7061143297908 155.1679183667247 L 665.531305388175 155.02208851217605 L 665.3597310663145 154.87547573002803 L 665.191408521498 154.72809468143663 L 665.0263545858401 154.57996010438393 L 664.8645857645965 154.43108681220417 L 664.7061182345149 154.28148969210253 L 664.550967842216 154.13118370366635 L 664.3991501026097 153.9801838773692 L 664.2506801973436 153.8285053130679 L 664.1055729732844 153.6761631784925 L 663.9638429410337 153.52317270772943 L 663.8255042734766 153.36954919969835 L 663.6905708043644 153.215308016622 L 663.5590560269316 153.0604645824902 L 663.4309730925465 152.90503438151728 L 663.3063348093957 152.74903295659385 L 663.1851536412037 152.59247590773236 L 663.0674417059863 152.43537889050728 L 662.953210774839 152.27775761448936 L 662.8424722707597 152.1196278416749 L 662.7352372675064 151.9610053849094 L 662.6315164884901 151.80190610630635 L 662.5313203057025 151.64234591566102 L 662.4346587386781 151.4823407688595 L 662.341541453493 151.32190666628316 L 662.2519777617986 151.16105965120852 L 662.1659766198889 150.9998158082031 L 662.0835466278066 150.8381912615168 L 662.0046960284824 150.67620217346962 L 661.9294327069102 150.51386474283532 L 661.8577641893598 150.35119520322178 L 661.789697642623 150.18820982144732 L 661.7252398732977 150.02492489591432 L 661.6643973271073 149.86135675497928 L 661.6071760882555 149.69752175531997 L 661.5535818788188 149.53343628029984 L 661.5036200581733 149.36911673832964 L 661.4572956224594 149.20457956122664 L 661.414613204082 149.03984120257144 L 661.3755770712477 148.87491813606263 L 661.3401911275369 148.7098268538694 L 661.3084589115145 148.54458386498243 L 661.2803835963759 148.37920569356288 L 661.2559679896292 148.21370887729012 L 661.2352145328146 148.0481099657078 L 661.2181253012603 147.88242551856908 L 661.2047020038756 147.71667210418067 L 661.1949459829789 147.55086629774584 L 661.188858214164 147.38502467970707 L 661.1864393062029 147.21916383408794" stroke-miterlimit="10" stroke-width="4.27228394" stroke-dasharray=""/></g><g><g/><text fill="black" stroke="none" font-family="sans-serif" font-size="11pt" font-style="normal" font-weight="normal" text-decoration="normal" x="643.8405639344076" y="190.74491238000002" text-anchor="start" dominant-baseline="alphabetic" xml:space="preserve">IPA FHIR Server</text></g></g><g><g><g><rect fill="white" stroke="none" x="66.74206023792317" y="248.54640098000002" width="127.3531673734375" height="32.6704066"/></g><text fill="black" stroke="none" font-family="sans-serif" font-size="11pt" font-style="normal" font-weight="normal" text-decoration="normal" x="70.51172253792316" y="271.16437478" text-anchor="start" dominant-baseline="alphabetic" xml:space="preserve">Patient opens App</text></g><g><path fill="none" stroke="black" paint-order="fill stroke markers" d=" M 35.38586112939453 281.21680758 L 204.76016920655596 281.21680758" stroke-miterlimit="10" stroke-width="2.094256833333333" stroke-dasharray=""/><g transform="translate(225.4514267198893,281.21680758) translate(-225.4514267198893,-281.21680758)"><path fill="black" stroke="none" paint-order="stroke fill markers" d=" M 204.50885838655597 270.74552341333333 L 225.4514267198893 281.21680758 L 204.50885838655597 291.6880917466667 Z"/></g></g><g><g><rect fill="white" stroke="none" x="255.18987375322263" y="318.91343058000007" width="117.24585230996094" height="32.6704066"/></g><g><rect fill="white" stroke="none" x="255.18987375322263" y="344.04451258000006" width="215.377459365625" height="32.6704066"/></g><text fill="black" stroke="none" font-family="sans-serif" font-size="11pt" font-style="normal" font-weight="normal" text-decoration="normal" x="258.9595360532226" y="341.5314043800001" text-anchor="start" dominant-baseline="alphabetic" xml:space="preserve">SMART on FHIR</text><text fill="black" stroke="none" font-family="sans-serif" font-size="11pt" font-style="normal" font-weight="normal" text-decoration="normal" x="258.9595360532226" y="366.6624863800001" text-anchor="start" dominant-baseline="alphabetic" xml:space="preserve">authentication and authorization</text></g><g><path fill="none" stroke="black" paint-order="fill stroke markers" d=" M 225.4514267198893 376.71491918000004 L 479.61452263884763 376.71491918000004" stroke-miterlimit="10" stroke-width="2.094256833333333" stroke-dasharray=""/><g transform="translate(500.30578015218094,376.71491918000004) translate(-500.30578015218094,-376.71491918000004)"><path fill="black" stroke="none" paint-order="stroke fill markers" d=" M 479.3632118188476 366.24363501333335 L 500.30578015218094 376.71491918000004 L 479.3632118188476 387.18620334666673 Z"/></g></g><g><g><rect fill="white" stroke="none" x="359.1089411360351" y="380.4845814800001" width="7.5393246" height="32.6704066"/></g><text fill="black" stroke="none" font-family="sans-serif" font-size="11pt" font-style="normal" font-weight="normal" text-decoration="normal" x="362.8786034360351" y="403.1025552800001" text-anchor="start" dominant-baseline="alphabetic" xml:space="preserve"></text></g><g><path fill="none" stroke="black" paint-order="fill stroke markers" d=" M 500.30578015218094 413.15498808000007 L 246.14268423322264 413.15498808000007" stroke-miterlimit="10" stroke-width="2.094256833333333" stroke-dasharray="10.0524328"/><g transform="translate(225.4514267198893,413.15498808000007) translate(-225.4514267198893,-413.15498808000007)"><path fill="black" stroke="none" paint-order="stroke fill markers" d=" M 246.39399505322262 402.6837039133334 L 225.4514267198893 413.15498808000007 L 246.39399505322262 423.62627224666676 Z"/></g></g><g><g><rect fill="white" stroke="none" x="356.84989336040036" y="450.8516110800001" width="209.629412490625" height="32.6704066"/></g><text fill="black" stroke="none" font-family="sans-serif" font-size="11pt" font-style="normal" font-weight="normal" text-decoration="normal" x="360.61955566040035" y="473.4695848800001" text-anchor="start" dominant-baseline="alphabetic" xml:space="preserve">App accesses Patient resource</text></g><g><path fill="none" stroke="black" paint-order="fill stroke markers" d=" M 225.4514267198893 483.5220176800001 L 677.1865149782031 483.5220176800001" stroke-miterlimit="10" stroke-width="2.094256833333333" stroke-dasharray=""/><g transform="translate(697.8777724915365,483.5220176800001) translate(-697.8777724915365,-483.5220176800001)"><path fill="black" stroke="none" paint-order="stroke fill markers" d=" M 676.9352041582031 473.0507335133334 L 697.8777724915365 483.5220176800001 L 676.9352041582031 493.9933018466668 Z"/></g></g><g><g><rect fill="white" stroke="none" x="457.89493730571286" y="487.29167998000014" width="7.5393246" height="32.6704066"/></g><text fill="black" stroke="none" font-family="sans-serif" font-size="11pt" font-style="normal" font-weight="normal" text-decoration="normal" x="461.66459960571285" y="509.90965378000016" text-anchor="start" dominant-baseline="alphabetic" xml:space="preserve"></text></g><g><path fill="none" stroke="black" paint-order="fill stroke markers" d=" M 697.8777724915365 519.9620865800001 L 246.14268423322264 519.9620865800001" stroke-miterlimit="10" stroke-width="2.094256833333333" stroke-dasharray="10.0524328"/><g transform="translate(225.4514267198893,519.9620865800001) translate(-225.4514267198893,-519.9620865800001)"><path fill="black" stroke="none" paint-order="stroke fill markers" d=" M 246.39399505322262 509.4908024133334 L 225.4514267198893 519.9620865800001 L 246.39399505322262 530.4333707466668 Z"/></g></g><g><g><rect fill="white" stroke="none" x="387.805497913623" y="557.6587095800002" width="106.95946009804688" height="32.6704066"/></g><g><rect fill="white" stroke="none" x="387.805497913623" y="582.7897915800002" width="147.71820338417967" height="32.6704066"/></g><text fill="black" stroke="none" font-family="sans-serif" font-size="11pt" font-style="normal" font-weight="normal" text-decoration="normal" x="391.575160213623" y="580.2766833800001" text-anchor="start" dominant-baseline="alphabetic" xml:space="preserve">App queries for</text><text fill="black" stroke="none" font-family="sans-serif" font-size="11pt" font-style="normal" font-weight="normal" text-decoration="normal" x="391.575160213623" y="605.4077653800001" text-anchor="start" dominant-baseline="alphabetic" xml:space="preserve">additional clincal data</text></g><g><path fill="none" stroke="black" paint-order="fill stroke markers" d=" M 225.4514267198893 615.4601981800001 L 677.1865149782031 615.4601981800001" stroke-miterlimit="10" stroke-width="2.094256833333333" stroke-dasharray=""/><g transform="translate(697.8777724915365,615.4601981800001) translate(-697.8777724915365,-615.4601981800001)"><path fill="black" stroke="none" paint-order="stroke fill markers" d=" M 676.9352041582031 604.9889140133334 L 697.8777724915365 615.4601981800001 L 676.9352041582031 625.9314823466668 Z"/></g></g><g><g><rect fill="white" stroke="none" x="457.89493730571286" y="619.2298604800002" width="7.5393246" height="32.6704066"/></g><text fill="black" stroke="none" font-family="sans-serif" font-size="11pt" font-style="normal" font-weight="normal" text-decoration="normal" x="461.66459960571285" y="641.8478342800001" text-anchor="start" dominant-baseline="alphabetic" xml:space="preserve"></text></g><g><path fill="none" stroke="black" paint-order="fill stroke markers" d=" M 697.8777724915365 651.9002670800002 L 246.14268423322264 651.9002670800002" stroke-miterlimit="10" stroke-width="2.094256833333333" stroke-dasharray="10.0524328"/><g transform="translate(225.4514267198893,651.9002670800002) translate(-225.4514267198893,-651.9002670800002)"><path fill="black" stroke="none" paint-order="stroke fill markers" d=" M 246.39399505322262 641.4289829133335 L 225.4514267198893 651.9002670800002 L 246.39399505322262 662.3715512466669 Z"/></g></g><g><g><rect fill="white" stroke="none" x="65.12430816272786" y="689.5968900800002" width="130.5886715238281" height="32.6704066"/></g><text fill="black" stroke="none" font-family="sans-serif" font-size="11pt" font-style="normal" font-weight="normal" text-decoration="normal" x="68.89397046272785" y="712.2148638800002" text-anchor="start" dominant-baseline="alphabetic" xml:space="preserve">Patient views data </text></g><g><path fill="none" stroke="black" paint-order="fill stroke markers" d=" M 35.38586112939453 722.2672966800002 L 204.76016920655596 722.2672966800002" stroke-miterlimit="10" stroke-width="2.094256833333333" stroke-dasharray=""/><g transform="translate(225.4514267198893,722.2672966800002) translate(-225.4514267198893,-722.2672966800002)"><path fill="black" stroke="none" paint-order="stroke fill markers" d=" M 204.50885838655597 711.7960125133335 L 225.4514267198893 722.2672966800002 L 204.50885838655597 732.7385808466669 Z"/></g></g></g><g/><g/><g/><g/></g></svg>